<?xml version="1.0" standalone="no"?>
<!DOCTYPE svg PUBLIC "-//W3C//DTD SVG 20010904//EN"
 "http://www.w3.org/TR/2001/REC-SVG-20010904/DTD/svg10.dtd">
<svg version="1.0" xmlns="http://www.w3.org/2000/svg"
 width="1920.000000pt" height="710.000000pt" viewBox="0 0 1920.000000 710.000000"
 preserveAspectRatio="xMidYMid meet">
<metadata>
Created by potrace 1.15, written by Peter Selinger 2001-2017
</metadata>
<g transform="translate(0.000000,710.000000) scale(0.100000,-0.100000)"
fill="#000000" stroke="none">
<path d="M607 6422 l-77 -77 0 -223 0 -222 220 0 220 0 0 300 0 300 -143 0
-142 0 -78 -78z m343 -222 l0 -280 -200 0 -200 0 0 205 0 205 75 0 75 0 0 75
0 75 125 0 125 0 0 -280z"/>
<path d="M2750 6480 c-19 -19 -20 -33 -20 -224 0 -261 -7 -250 149 -254 61 -2
111 -8 111 -13 0 -5 -24 -9 -54 -9 -58 0 -92 -19 -98 -55 -3 -19 3 -20 192
-20 189 0 195 1 192 20 -6 36 -40 55 -98 55 -30 0 -54 4 -54 9 0 5 50 11 111
13 156 4 149 -7 149 254 0 191 -1 205 -20 224 -19 19 -33 20 -280 20 -247 0
-261 -1 -280 -20z m548 -192 l2 -178 -270 0 -270 0 0 173 c0 96 3 177 7 180 4
4 124 6 267 5 l261 -3 3 -177z m2 -227 c0 -10 -7 -22 -16 -25 -9 -3 -123 -6
-254 -6 -131 0 -245 3 -254 6 -9 3 -16 15 -16 25 0 18 12 19 270 19 258 0 270
-1 270 -19z"/>
<path d="M1627 4982 c-15 -16 -17 -49 -17 -254 0 -215 2 -236 18 -251 16 -15
49 -17 248 -17 166 0 233 3 242 12 14 14 16 128 2 128 -5 0 -10 -22 -10 -48 0
-26 -5 -53 -12 -60 -9 -9 -74 -12 -230 -12 -205 0 -218 1 -228 19 -6 12 -10
95 -10 200 l0 181 240 0 240 0 0 -50 c0 -27 5 -50 10 -50 15 0 13 193 -2 208
-9 9 -77 12 -243 12 -212 0 -233 -2 -248 -18z m471 -14 c7 -7 12 -25 12 -40
l0 -28 -240 0 c-236 0 -240 0 -240 21 0 11 5 29 10 40 10 18 23 19 228 19 156
0 221 -3 230 -12z"/>
<path d="M3107 4072 l-77 -77 0 -223 0 -222 225 0 225 0 0 50 c0 28 -4 50 -10
50 -5 0 -10 -18 -10 -40 l0 -40 -205 0 -205 0 0 205 0 205 75 0 75 0 0 75 0
75 130 0 130 0 0 -150 c0 -93 4 -150 10 -150 6 0 10 60 10 160 l0 160 -148 0
-147 0 -78 -78z"/>
<path d="M1794 2426 c-57 -14 -119 -49 -128 -72 -3 -9 -6 -108 -6 -220 0 -189
1 -205 19 -223 93 -93 369 -93 462 0 18 18 19 34 19 229 0 195 -1 211 -19 229
-62 62 -220 88 -347 57z m258 -33 c56 -17 92 -56 78 -83 -5 -10 -31 -29 -57
-42 -42 -20 -63 -23 -163 -23 -100 0 -121 3 -163 23 -59 29 -72 51 -50 82 43
62 225 84 355 43z m-142 -168 c114 0 129 2 178 26 l52 26 0 -37 c0 -79 -81
-123 -230 -123 -149 0 -230 44 -230 123 l0 37 52 -26 c49 -24 64 -26 178 -26z
m-194 -91 c34 -23 128 -44 194 -44 66 0 160 21 194 44 35 22 36 21 36 -24 0
-80 -70 -115 -230 -115 -160 0 -230 35 -230 115 0 45 1 46 36 24z m194 -159
c114 0 129 2 178 26 l52 26 0 -37 c0 -81 -78 -122 -230 -122 -152 0 -230 41
-230 122 l0 37 52 -26 c49 -24 64 -26 178 -26z"/>
</g>
</svg>
