<svg width="566" height="447" viewBox="0 0 566 447" fill="none" xmlns="http://www.w3.org/2000/svg">
<ellipse cx="288" cy="84.5" rx="88" ry="84.5" fill="#181818"/>
<rect x="46.5" y="138.5" width="473" height="264" rx="22.5" fill="white" stroke="black" stroke-width="5"/>
<rect x="179" y="405" width="90" height="42" rx="21" fill="#181818"/>
<rect width="88.9012" height="42.4722" rx="21.2361" transform="matrix(0.93242 0.361376 -0.385906 0.922538 10.3903 231.197)" fill="#181818"/>
<rect width="88.9012" height="42.4722" rx="21.2361" transform="matrix(-0.93242 0.361376 0.385906 0.922538 555.61 231.197)" fill="#181818"/>
<rect x="309" y="405" width="89" height="42" rx="21" fill="#181818"/>
<g filter="url(#filter0_d)">
<ellipse cx="254" cy="65.5" rx="20" ry="19.5" fill="#2D2C2C"/>
</g>
<g filter="url(#filter1_d)">
<ellipse cx="321" cy="65.5" rx="20" ry="19.5" fill="#2D2C2C"/>
</g>
<g filter="url(#filter2_d)">
<path d="M268 106H308V108C308 119.046 299.046 128 288 128V128C276.954 128 268 119.046 268 108V106Z" fill="#2D2C2C"/>
</g>
<defs>
<filter id="filter0_d" x="230" y="46" width="48" height="47" filterUnits="userSpaceOnUse" color-interpolation-filters="sRGB">
<feFlood flood-opacity="0" result="BackgroundImageFix"/>
<feColorMatrix in="SourceAlpha" type="matrix" values="0 0 0 0 0 0 0 0 0 0 0 0 0 0 0 0 0 0 127 0"/>
<feOffset dy="4"/>
<feGaussianBlur stdDeviation="2"/>
<feColorMatrix type="matrix" values="0 0 0 0 0 0 0 0 0 0 0 0 0 0 0 0 0 0 0.25 0"/>
<feBlend mode="normal" in2="BackgroundImageFix" result="effect1_dropShadow"/>
<feBlend mode="normal" in="SourceGraphic" in2="effect1_dropShadow" result="shape"/>
</filter>
<filter id="filter1_d" x="297" y="46" width="48" height="47" filterUnits="userSpaceOnUse" color-interpolation-filters="sRGB">
<feFlood flood-opacity="0" result="BackgroundImageFix"/>
<feColorMatrix in="SourceAlpha" type="matrix" values="0 0 0 0 0 0 0 0 0 0 0 0 0 0 0 0 0 0 127 0"/>
<feOffset dy="4"/>
<feGaussianBlur stdDeviation="2"/>
<feColorMatrix type="matrix" values="0 0 0 0 0 0 0 0 0 0 0 0 0 0 0 0 0 0 0.25 0"/>
<feBlend mode="normal" in2="BackgroundImageFix" result="effect1_dropShadow"/>
<feBlend mode="normal" in="SourceGraphic" in2="effect1_dropShadow" result="shape"/>
</filter>
<filter id="filter2_d" x="264" y="106" width="48" height="30" filterUnits="userSpaceOnUse" color-interpolation-filters="sRGB">
<feFlood flood-opacity="0" result="BackgroundImageFix"/>
<feColorMatrix in="SourceAlpha" type="matrix" values="0 0 0 0 0 0 0 0 0 0 0 0 0 0 0 0 0 0 127 0"/>
<feOffset dy="4"/>
<feGaussianBlur stdDeviation="2"/>
<feColorMatrix type="matrix" values="0 0 0 0 0 0 0 0 0 0 0 0 0 0 0 0 0 0 0.25 0"/>
<feBlend mode="normal" in2="BackgroundImageFix" result="effect1_dropShadow"/>
<feBlend mode="normal" in="SourceGraphic" in2="effect1_dropShadow" result="shape"/>
</filter>
</defs>
</svg>
